<svg xmlns="http://www.w3.org/2000/svg" width="353" height="353" fill="none" viewBox="0 0 353 353">
    <g opacity=".8">
        <g fill="#000" opacity=".2">
            <path d="M51.747 51.696h.845v249.609h-.845zM56.817 51.696h.845v249.609h-.845zM61.887 51.696h.845v249.609h-.845zM66.956 51.696h.845v249.609h-.845zM72.026 51.696h.845v249.609h-.845zM77.096 51.696h.845v249.609h-.845zM82.165 51.696h.845v249.609h-.845zM87.235 51.696h.845v249.609h-.845zM92.304 51.696h.845v249.609h-.845zM97.374 51.696h.845v249.609h-.845zM102.443 51.696h.845v249.609h-.845zM107.513 51.696h.845v249.609h-.845zM112.583 51.696h.845v249.609h-.845zM117.652 51.696h.845v249.609h-.845zM122.722 51.696h.845v249.609h-.845zM127.791 51.696h.845v249.609h-.845zM132.861 51.696h.845v249.609h-.845zM137.931 51.696h.845v249.609h-.845zM143 51.696h.845v249.609H143zM148.07 51.696h.845v249.609h-.845zM153.139 51.696h.845v249.609h-.845zM158.209 51.696h.845v249.609h-.845zM163.279 51.696h.845v249.609h-.845zM168.348 51.696h.845v249.609h-.845zM173.418 51.696h.845v249.609h-.845zM178.487 51.696h.845v249.609h-.845zM183.557 51.696h.845v249.609h-.845zM188.627 51.696h.845v249.609h-.845zM193.696 51.696h.845v249.609h-.845zM198.766 51.696h.845v249.609h-.845zM203.835 51.696h.845v249.609h-.845zM208.905 51.696h.845v249.609h-.845zM213.974 51.696h.845v249.609h-.845zM219.044 51.696h.845v249.609h-.845zM224.114 51.696h.845v249.609h-.845zM229.183 51.696h.845v249.609h-.845zM234.253 51.696h.845v249.609h-.845zM239.322 51.696h.845v249.609h-.845zM244.392 51.696h.845v249.609h-.845zM249.462 51.696h.845v249.609h-.845zM254.531 51.696h.845v249.609h-.845zM259.601 51.696h.845v249.609h-.845zM264.67 51.696h.845v249.609h-.845zM269.74 51.696h.845v249.609h-.845zM274.81 51.696h.845v249.609h-.845zM279.879 51.696h.845v249.609h-.845zM284.949 51.696h.845v249.609h-.845zM290.018 51.696h.845v249.609h-.845zM295.088 51.696h.845v249.609h-.845zM300.158 51.696h.845v249.609h-.845z"/>
            <path d="M301.003 51.696v.846H51.748v-.846zM301.002 56.772v.846H51.747v-.846zM301.003 61.85v.845H51.748v-.846zM301.003 66.926v.846H51.748v-.846zM301.003 72.003v.846H51.748v-.846zM301.003 77.08v.846H51.748v-.846zM301.003 82.156v.846H51.748v-.846zM301.003 87.233v.846H51.748v-.846zM301.003 92.31v.846H51.748v-.846zM301.003 97.387v.846H51.748v-.846zM301.003 102.463v.846H51.748v-.846zM301.003 107.54v.846H51.748v-.846zM301.003 112.617v.846H51.748v-.846zM301.003 117.694v.846H51.748v-.846zM301.003 122.771v.846H51.748v-.846zM301.003 127.847v.846H51.748v-.846zM301.003 132.924v.846H51.748v-.846zM301.003 138.001v.846H51.748v-.846zM301.003 143.078v.846H51.748v-.846zM301.003 148.155v.846H51.748v-.846zM301.003 153.231v.846H51.748v-.846zM301.003 158.308v.846H51.748v-.846zM301.003 163.385v.846H51.748v-.846zM301.003 168.462v.846H51.748v-.846zM301.003 173.539v.846H51.748v-.846zM301.003 178.615v.846H51.748v-.846zM301.003 183.692v.846H51.748v-.846zM301.003 188.769v.846H51.748v-.846zM301.003 193.846v.846H51.748v-.846zM301.003 198.922v.846H51.748v-.846zM301.003 203.999v.846H51.748v-.846zM301.003 209.076v.846H51.748v-.846zM301.003 214.153v.846H51.748v-.846zM301.003 219.23v.846H51.748v-.846zM301.003 224.306v.846H51.748v-.846zM301.003 229.383v.846H51.748v-.846zM301.003 234.46v.846H51.748v-.846zM301.003 239.537v.846H51.748v-.846zM301.003 244.614v.846H51.748v-.846zM301.003 249.69v.846H51.748v-.846zM301.003 254.767v.846H51.748v-.846zM301.003 259.844v.846H51.748v-.846zM301.003 264.921v.846H51.748v-.846zM301.003 269.998v.846H51.748v-.846zM301.003 275.074v.846H51.748v-.846zM301.003 280.151v.846H51.748v-.846zM301.003 285.228v.846H51.748v-.846zM301.003 290.305v.846H51.748v-.846zM301.003 295.381v.846H51.748v-.846zM301.003 300.458v.846H51.748v-.846z"/>
        </g>
        <g fill="#D1920C" opacity=".2">
            <path d="M176.375 0l.598.598L.598 176.973 0 176.375zM179.96 3.59l.597.598-176.25 176.5-.597-.598zM183.544 7.18l.597.598-176.25 176.5-.597-.598zM187.129 10.77l.597.598-176.25 176.5-.597-.598zM190.714 14.36l.597.598-176.25 176.5-.597-.599zM194.299 17.95l.597.597-176.25 176.5-.597-.598zM197.883 21.539l.597.598-176.25 176.5-.597-.598zM201.468 25.129l.597.598-176.25 176.5-.597-.598zM205.053 28.719l.597.598-176.25 176.5-.597-.598zM208.638 32.309l.597.598-176.25 176.5-.597-.598zM212.222 35.898l.597.599-176.25 176.5-.597-.599zM215.807 39.488l.597.598-176.25 176.5-.597-.598zM219.392 43.078l.597.598-176.25 176.5-.597-.598zM222.977 46.668l.597.598-176.25 176.5-.597-.598zM226.561 50.258l.597.598-176.25 176.5-.597-.598zM230.146 53.847l.597.599-176.25 176.5-.597-.599zM233.731 57.437l.597.599-176.25 176.5-.597-.599zM237.316 61.027l.597.598-176.25 176.5-.597-.598zM240.9 64.617l.597.598-176.25 176.5-.597-.598zM244.485 68.207l.597.598-176.25 176.5-.597-.598zM248.07 71.797l.597.598-176.25 176.5-.597-.598zM251.655 75.386l.597.599-176.25 176.5-.597-.598zM255.239 78.976l.597.598-176.25 176.5-.597-.598zM258.824 82.566l.597.598-176.25 176.5-.597-.598zM262.409 86.156l.597.598-176.25 176.5-.597-.598zM265.994 89.746l.597.598-176.25 176.5-.597-.598zM269.578 93.336l.597.598-176.25 176.5-.597-.598zM273.163 96.925l.597.599-176.25 176.5-.597-.599zM276.748 100.515l.597.598-176.25 176.5-.597-.598zM280.333 104.105l.597.598-176.25 176.5-.597-.598zM283.917 107.695l.597.598-176.25 176.5-.597-.598zM287.502 111.285l.597.598-176.25 176.5-.597-.598zM291.087 114.875l.597.598-176.25 176.5-.597-.598zM294.672 118.464l.597.598-176.25 176.5-.597-.598zM298.256 122.054l.597.598-176.25 176.5-.597-.598zM301.841 125.644l.597.598-176.25 176.5-.597-.598zM305.426 129.234l.597.598-176.25 176.5-.597-.598zM309.011 132.824l.597.598-176.25 176.5-.597-.598zM312.595 136.414l.597.598-176.25 176.5-.597-.598zM316.18 140.003l.597.598-176.25 176.5-.597-.598zM319.765 143.593l.597.598-176.25 176.5-.597-.598zM323.35 147.183l.597.598-176.25 176.5-.597-.598zM326.934 150.773l.597.598-176.25 176.5-.597-.598zM330.519 154.363l.597.598-176.25 176.5-.597-.598zM334.104 157.953l.597.598-176.25 176.5-.597-.598zM337.689 161.542l.597.598-176.25 176.5-.597-.598zM341.273 165.132l.597.598-176.25 176.5-.597-.598zM344.858 168.722l.597.598-176.25 176.5-.597-.598zM348.443 172.312l.597.598-176.25 176.5-.597-.598zM352.027 175.902l.597.598L176.374 353l-.597-.598z"/>
            <path d="M352.625 176.5l-.597.598L175.778.598l.597-.598zM349.04 180.09l-.597.598-176.25-176.5.597-.598zM345.455 183.68l-.597.598-176.25-176.5.597-.598zM341.871 187.27l-.597.598-176.25-176.5.597-.598zM338.286 190.859l-.597.598-176.25-176.5.597-.598zM334.701 194.449l-.597.598-176.25-176.5.597-.598zM331.116 198.039l-.597.598-176.25-176.5.597-.598zM327.532 201.629l-.597.598-176.25-176.5.597-.598zM323.947 205.219l-.597.598-176.25-176.5.597-.598zM320.362 208.808l-.597.598-176.25-176.5.597-.598zM316.777 212.398l-.597.598-176.25-176.5.597-.598zM313.193 215.988l-.597.598-176.25-176.5.597-.598zM309.608 219.578l-.597.598-176.25-176.5.597-.598zM306.023 223.168l-.597.598-176.25-176.5.597-.598zM302.438 226.758l-.597.598-176.25-176.5.597-.598zM298.854 230.347l-.597.598-176.25-176.5.597-.598zM295.269 233.937l-.597.598-176.25-176.5.597-.598zM291.684 237.527l-.597.598-176.25-176.5.597-.598zM288.099 241.117l-.597.598-176.25-176.5.597-.598zM284.515 244.707l-.597.598-176.25-176.5.597-.598zM280.93 248.297l-.597.598-176.25-176.5.597-.598zM277.345 251.886l-.597.598-176.25-176.5.597-.598zM273.76 255.476l-.597.598-176.25-176.5.597-.598zM270.176 259.066l-.597.598-176.25-176.5.597-.598zM266.591 262.656l-.597.598-176.25-176.5.597-.598zM263.006 266.246l-.597.598-176.25-176.5.597-.598zM259.422 269.836l-.597.598-176.25-176.5.597-.598zM255.837 273.425l-.597.598-176.25-176.5.597-.598zM252.252 277.015l-.597.598-176.25-176.5.597-.598zM248.667 280.605l-.597.598-176.25-176.5.597-.598zM245.082 284.195l-.597.598-176.25-176.5.597-.598zM241.498 287.785l-.597.598-176.25-176.5.597-.598zM237.913 291.375l-.597.598-176.25-176.5.597-.598zM234.328 294.964l-.597.598-176.25-176.5.597-.598zM230.744 298.554l-.597.598-176.25-176.5.597-.598zM227.159 302.144l-.597.598-176.25-176.5.597-.598zM223.574 305.734l-.597.598-176.25-176.5.597-.598zM219.989 309.324l-.597.598-176.25-176.5.597-.598zM216.405 312.914l-.597.598-176.25-176.5.597-.598zM212.82 316.503l-.597.598-176.25-176.5.597-.598zM209.235 320.093l-.597.598-176.25-176.5.597-.598zM205.65 323.683l-.597.598-176.25-176.5.597-.598zM202.066 327.273l-.597.598-176.25-176.5.597-.598zM198.481 330.863l-.597.598-176.25-176.5.597-.598zM194.896 334.452l-.597.598-176.25-176.5.597-.598zM191.311 338.042l-.597.598-176.25-176.5.597-.598zM187.727 341.632l-.597.598-176.25-176.5.597-.598zM184.142 345.222l-.597.598-176.25-176.5.597-.598zM180.557 348.812l-.597.598L3.71 172.91l.597-.598zM176.972 352.402l-.597.598L.125 176.5l.597-.598z"/>
        </g>
        <g fill="#D1920C" opacity=".2">
            <path d="M264.5 23.646l.219.818L23.957 89.067l-.22-.817zM265.812 28.55l.219.818L25.269 93.97l-.22-.817zM267.124 33.454l.219.817L26.58 98.875l-.22-.817zM268.436 38.358l.219.817L27.893 103.78l-.22-.817zM269.748 43.262l.219.817-240.762 64.604-.22-.818zM271.061 48.166l.219.817-240.762 64.603-.22-.817zM272.373 53.07l.219.817L31.83 118.49l-.22-.817zM273.685 57.973l.219.817-240.762 64.604-.22-.817zM274.997 62.877l.219.817-240.762 64.604-.22-.817zM276.309 67.78l.219.818L35.766 133.2l-.22-.817zM277.621 72.684l.219.818-240.762 64.603-.22-.817zM278.933 77.588l.219.818L38.39 143.009l-.22-.817zM280.245 82.492l.219.817-240.762 64.604-.22-.817zM281.557 87.396l.219.817-240.762 64.604-.22-.817zM282.869 92.3l.219.817-240.762 64.604-.22-.818zM284.182 97.204l.219.817-240.762 64.603-.22-.817zM285.494 102.107l.219.817L44.95 167.528l-.22-.817zM286.806 107.011l.219.817-240.762 64.604-.22-.817zM288.118 111.915l.219.817-240.762 64.604-.22-.817zM289.43 116.819l.219.817L48.887 182.24l-.22-.817zM290.742 121.722l.219.817-240.762 64.604-.22-.817zM292.054 126.626l.219.817L51.51 192.047l-.22-.817zM293.366 131.53l.219.817-240.762 64.604-.22-.817zM294.678 136.434l.219.817-240.762 64.604-.22-.817zM295.991 141.338l.219.817L55.448 206.76l-.22-.817zM297.303 146.242l.219.817L56.76 211.663l-.22-.817zM298.615 151.145l.219.817-240.762 64.604-.22-.817zM299.927 156.049l.219.817L59.384 221.47l-.22-.817zM301.239 160.953l.219.817-240.762 64.604-.22-.817zM302.551 165.857l.219.817-240.762 64.604-.22-.817zM303.863 170.76l.219.817L63.32 236.181l-.22-.817zM305.175 175.664l.219.817-240.762 64.604-.22-.817zM306.487 180.568l.219.817L65.944 245.99l-.22-.817zM307.8 185.472l.219.817-240.762 64.604-.22-.817zM309.112 190.376l.219.817-240.762 64.604-.22-.817zM310.424 195.28l.219.817L69.88 260.701l-.22-.817zM311.736 200.183l.219.817-240.762 64.604-.22-.817zM313.048 205.087l.219.817-240.762 64.604-.22-.817zM314.36 209.991l.219.817-240.762 64.604-.22-.817zM315.672 214.895l.219.817-240.762 64.604-.22-.817zM316.984 219.798l.219.817L76.44 285.22l-.22-.817zM318.296 224.702l.219.817-240.762 64.604-.22-.817zM319.608 229.606l.219.817-240.762 64.604-.22-.817zM320.921 234.51l.219.817-240.762 64.604-.22-.817zM322.233 239.414l.219.817L81.69 304.835l-.22-.817zM323.545 244.317l.219.817-240.762 64.604-.22-.817zM324.857 249.221l.219.817-240.762 64.604-.22-.817zM326.169 254.125l.219.817-240.762 64.604-.22-.817zM327.481 259.029l.219.817L86.938 324.45l-.22-.817zM328.793 263.933l.219.817L88.25 329.354l-.22-.817z"/>
            <path d="M329.012 264.75l-.816.219-64.512-241.104.816-.219zM324.116 266.064l-.816.219-64.512-241.104.816-.219zM319.218 267.378l-.816.219L253.89 26.493l.816-.219zM314.321 268.692l-.816.219-64.512-241.104.816-.219zM309.425 270.006l-.816.219-64.512-241.104.816-.219zM304.528 271.32l-.816.219L239.2 30.435l.816-.219zM299.631 272.634l-.816.219-64.512-241.104.816-.219zM294.734 273.948l-.816.219-64.512-241.104.816-.219zM289.837 275.262l-.816.219-64.512-241.104.816-.219zM284.94 276.576l-.816.219-64.512-241.104.816-.219zM280.043 277.89l-.816.219-64.512-241.104.816-.219zM275.147 279.204l-.816.219-64.512-241.104.816-.219zM270.25 280.517l-.816.219-64.512-241.104.816-.219zM265.353 281.832l-.816.219-64.512-241.104.816-.219zM260.456 283.145l-.816.219L195.128 42.26l.816-.219zM255.559 284.459l-.816.219L190.23 43.574l.816-.219zM250.662 285.773l-.816.219-64.512-241.104.816-.219zM245.765 287.087l-.816.219-64.512-241.104.816-.219zM240.869 288.401l-.816.219L175.54 47.516l.816-.219zM235.972 289.715l-.816.219L170.644 48.83l.816-.219zM231.075 291.029l-.816.219-64.512-241.104.816-.219zM226.178 292.343l-.816.219L160.85 51.458l.816-.219zM221.281 293.657l-.816.219-64.512-241.104.816-.219zM216.384 294.971l-.816.219-64.512-241.104.816-.219zM211.487 296.285l-.816.219L146.159 55.4l.816-.219zM206.591 297.599l-.816.219-64.512-241.104.816-.219zM201.694 298.913l-.816.219-64.512-241.104.816-.219zM196.797 300.227l-.816.219-64.512-241.104.816-.219zM191.9 301.541l-.816.219-64.512-241.104.816-.219zM187.003 302.855l-.816.219L121.675 61.97l.816-.219zM182.106 304.169l-.816.219-64.512-241.104.816-.219zM177.209 305.483l-.816.219L111.88 64.598l.816-.219zM172.313 306.797l-.816.219-64.512-241.104.816-.219zM167.416 308.111l-.816.219-64.512-241.104.816-.219zM162.519 309.425l-.816.219L97.19 68.54l.816-.219zM157.622 310.739l-.816.219L92.294 69.854l.816-.219zM152.725 312.053l-.816.219L87.397 71.168l.816-.219zM147.828 313.367l-.816.219L82.5 72.482l.816-.219zM142.932 314.681l-.816.219L77.604 73.796l.816-.219zM138.035 315.995l-.816.219L72.707 75.11l.816-.219zM133.138 317.309l-.816.219L67.81 76.424l.816-.219zM128.241 318.623l-.816.219L62.913 77.738l.816-.219zM123.344 319.937l-.816.219L58.016 79.052l.816-.219zM118.447 321.251l-.816.219L53.119 80.366l.816-.219zM113.55 322.565l-.816.219L48.222 81.68l.816-.219zM108.654 323.879l-.816.219L43.326 82.994l.816-.219zM103.757 325.192l-.816.219L38.429 84.307l.816-.219zM98.86 326.506l-.816.219L33.532 85.621l.816-.219zM93.963 327.82l-.816.219L28.635 86.935l.816-.219zM89.066 329.134l-.816.219L23.738 88.249l.816-.219z"/>
        </g>
        <g fill="#D1920C" opacity=".2">
            <path d="M88.25 23.646l.816.22-64.512 241.103-.816-.219zM93.146 24.96l.817.22L29.45 266.282l-.816-.22zM98.044 26.274l.816.22-64.512 241.103-.816-.219zM102.941 27.588l.816.22L39.245 268.91l-.816-.219zM107.837 28.902l.816.22-64.512 241.103-.816-.219zM112.734 30.216l.816.22-64.512 241.103-.816-.219zM117.631 31.53l.816.22-64.512 241.103-.816-.219zM122.528 32.844l.816.22-64.512 241.103-.816-.219zM127.425 34.158l.816.22L63.73 275.48l-.816-.22zM132.322 35.472l.816.22-64.512 241.103-.816-.22zM137.218 36.786l.816.22-64.512 241.103-.816-.22zM142.115 38.1l.816.22L78.42 279.422l-.816-.22zM147.012 39.414l.816.22-64.512 241.103-.816-.22zM151.909 40.728l.816.22L88.213 282.05l-.816-.22zM156.806 42.042l.816.22L93.11 283.364l-.816-.22zM161.703 43.356l.816.22-64.512 241.103-.816-.22zM166.6 44.67l.816.22-64.512 241.103-.816-.22zM171.496 45.984l.816.219L107.8 287.307l-.816-.22zM176.393 47.298l.816.219-64.512 241.104-.816-.22zM181.29 48.612l.816.219-64.512 241.103-.816-.218zM186.187 49.926l.816.219-64.512 241.103-.816-.218zM191.084 51.24l.816.219-64.512 241.104-.816-.22zM195.981 52.554l.816.219-64.512 241.103-.816-.219zM200.878 53.868l.816.219-64.512 241.103-.816-.219zM205.775 55.182l.816.219-64.512 241.103-.816-.219zM210.671 56.496l.816.219-64.512 241.103-.816-.219zM215.568 57.81l.816.219-64.512 241.103-.816-.219zM220.465 59.124l.816.219-64.512 241.103-.816-.219zM225.362 60.438l.816.219-64.512 241.103-.816-.219zM230.259 61.752l.816.219-64.512 241.103-.816-.219zM235.156 63.066l.816.219-64.512 241.103-.816-.219zM240.052 64.38l.816.218-64.512 241.104-.816-.219zM244.949 65.694l.816.218-64.512 241.104-.816-.219zM249.846 67.008l.816.219L186.15 308.33l-.816-.219zM254.743 68.322l.816.218-64.512 241.104-.816-.219zM259.64 69.635l.816.22-64.512 241.103-.816-.219zM264.537 70.95l.816.218-64.512 241.104-.816-.22zM269.434 72.263l.816.22-64.512 241.103-.816-.219zM274.33 73.577l.816.22L210.634 314.9l-.816-.219zM279.227 74.891l.816.22-64.512 241.103-.816-.219zM284.124 76.205l.816.22-64.512 241.103-.816-.22zM289.021 77.52l.816.218-64.512 241.104-.816-.22zM293.918 78.833l.816.22-64.512 241.103-.816-.22zM298.815 80.147l.816.22L235.12 321.47l-.816-.22zM303.712 81.461l.816.22-64.512 241.103-.816-.22zM308.608 82.775l.816.22-64.512 241.103-.816-.22zM313.505 84.09l.816.218-64.512 241.104-.816-.22zM318.402 85.403l.816.22-64.512 241.103-.816-.22zM323.299 86.717l.816.219-64.512 241.104-.816-.22zM328.196 88.031l.816.219L264.5 329.354l-.816-.22z"/>
            <path d="M329.012 88.25l-.219.817L88.031 24.464l.219-.818zM327.7 93.154l-.219.817L86.72 29.367l.219-.817zM326.388 98.058l-.219.817L85.407 34.27l.219-.817zM325.076 102.961l-.219.817L84.095 39.175l.219-.818zM323.764 107.865l-.219.817L82.783 44.08l.219-.818zM322.451 112.769l-.219.817L81.47 48.983l.219-.818zM321.139 117.673l-.219.817L80.158 53.887l.219-.818zM319.827 122.577l-.219.817L78.846 58.791l.219-.818zM318.515 127.48l-.219.817L77.534 63.694l.219-.818zM317.203 132.384l-.219.817L76.222 68.598l.219-.818zM315.891 137.288l-.219.817L74.91 73.502l.219-.818zM314.579 142.192l-.219.817L73.598 78.406l.219-.818zM313.267 147.096l-.219.817L72.286 83.31l.219-.818zM311.955 151.999l-.219.817L70.974 88.213l.219-.818zM310.642 156.903l-.219.817L69.661 93.117l.219-.818zM309.33 161.807l-.219.817L68.35 98.021l.219-.818zM308.018 166.711l-.219.817-240.762-64.603.219-.818zM306.706 171.614l-.219.817-240.762-64.603.219-.818zM305.394 176.518l-.219.817-240.762-64.603.219-.818zM304.082 181.422l-.219.817-240.762-64.603.219-.818zM302.77 186.326l-.219.817L61.79 122.54l.219-.818zM301.458 191.23l-.219.817-240.762-64.603.219-.818zM300.146 196.134l-.219.817-240.762-64.603.219-.818zM298.834 201.037l-.219.817-240.762-64.603.219-.818zM297.521 205.941l-.219.817L56.54 142.155l.219-.818zM296.209 210.845l-.219.817L55.228 147.06l.219-.818zM294.897 215.749l-.219.817-240.762-64.603.219-.818zM293.585 220.653l-.219.817-240.762-64.603.219-.818zM292.273 225.556l-.219.817L51.292 161.77l.219-.818zM290.961 230.46l-.219.817L49.98 166.674l.219-.818zM289.649 235.364l-.219.817-240.762-64.603.219-.818zM288.337 240.268l-.219.817-240.762-64.603.219-.818zM287.025 245.172l-.219.817-240.762-64.603.219-.818zM285.712 250.075l-.219.817L44.731 186.29l.219-.818zM284.4 254.979l-.219.817L43.42 191.193l.219-.818zM283.088 259.883l-.219.817-240.762-64.603.219-.818zM281.776 264.787l-.219.817-240.762-64.603.219-.818zM280.464 269.691l-.219.817-240.762-64.603.219-.818zM279.152 274.594l-.219.817-240.762-64.603.219-.818zM277.84 279.498l-.219.817L36.86 215.712l.219-.818zM276.528 284.402l-.219.817-240.762-64.603.219-.818zM275.216 289.306l-.219.817L34.235 225.52l.219-.818zM273.903 294.21l-.219.817-240.762-64.603.219-.818zM272.591 299.113l-.219.817L31.61 235.327l.219-.818zM271.279 304.017l-.219.817-240.762-64.603.219-.818zM269.967 308.921l-.219.817-240.762-64.603.219-.818zM268.655 313.825l-.219.817L27.674 250.04l.219-.818zM267.343 318.728l-.219.817-240.762-64.603.219-.818zM266.031 323.632l-.219.817L25.05 259.846l.219-.818zM264.719 328.536l-.219.817L23.738 264.75l.219-.818z"/>
        </g>
        <g fill="#000" opacity=".1">
            <path d="M130.758 6.014l.732.423L6.862 222.605l-.732-.423zM135.149 8.552l.732.423L11.253 225.143l-.732-.423zM139.539 11.09l.732.424L15.643 227.68l-.732-.423zM143.929 13.63l.732.422L20.033 230.22l-.732-.423zM148.32 16.168l.732.423L24.424 232.758l-.732-.423zM152.71 18.706l.732.423L28.814 235.297l-.732-.423zM157.101 21.244l.732.423L33.205 237.835l-.732-.423zM161.491 23.783l.732.423L37.595 240.373l-.732-.423zM165.881 26.321l.732.423L41.985 242.912l-.732-.423zM170.272 28.86l.732.423L46.376 245.45l-.732-.423zM174.662 31.398l.732.423L50.766 247.989l-.732-.423zM179.053 33.936l.732.423L55.157 250.527l-.732-.423zM183.443 36.475l.732.423L59.547 253.065l-.732-.423zM187.833 39.013l.732.423L63.937 255.604l-.732-.423zM192.224 41.552l.732.423L68.328 258.142l-.732-.423zM196.614 44.09l.732.423L72.718 260.68l-.732-.423zM201.005 46.628l.732.423L77.109 263.22l-.732-.423zM205.395 49.167l.732.423L81.499 265.757l-.732-.423zM209.786 51.705l.732.423L85.89 268.296l-.732-.423zM214.176 54.243l.732.423L90.28 270.834l-.732-.423zM218.566 56.782l.732.423L94.67 273.373l-.732-.423zM222.957 59.32l.732.423L99.06 275.911l-.732-.423zM227.347 61.859l.732.423L103.45 278.449l-.732-.423zM231.737 64.397l.732.423L107.84 280.988l-.732-.423zM236.128 66.936l.732.422-124.628 216.168-.732-.423zM240.518 69.474l.732.423-124.628 216.167-.732-.423zM244.909 72.012l.732.423-124.628 216.168-.732-.423zM249.299 74.55l.732.424L125.403 291.14l-.732-.423zM253.689 77.09l.732.422L129.793 293.68l-.732-.423zM258.08 79.628l.732.423-124.628 216.167-.732-.423zM262.47 82.166l.732.423-124.628 216.167-.732-.423zM266.861 84.704l.732.423-124.628 216.168-.732-.423zM271.251 87.243l.732.423-124.628 216.167-.732-.423zM275.641 89.781l.732.423-124.628 216.168-.732-.423zM280.032 92.32l.732.422L156.136 308.91l-.732-.423zM284.422 94.858l.732.423-124.628 216.167-.732-.423zM288.813 97.396l.732.423-124.628 216.168-.732-.423zM293.203 99.935l.732.423-124.628 216.167-.732-.423zM297.593 102.473l.732.423-124.628 216.168-.732-.423zM301.984 105.011l.732.423-124.628 216.168-.732-.423zM306.374 107.55l.732.423L182.478 324.14l-.732-.423zM310.765 110.088l.732.423-124.628 216.168-.732-.423zM315.155 112.627l.732.423-124.628 216.168-.732-.423zM319.545 115.165l.732.423-124.628 216.168-.732-.423zM323.936 117.703l.732.423L200.04 334.294l-.732-.423zM328.326 120.242l.732.423L204.43 336.833l-.732-.423zM332.717 122.78l.732.423L208.82 339.37l-.732-.423zM337.107 125.319l.732.423L213.21 341.91l-.732-.423zM341.497 127.857l.732.423L217.6 344.448l-.732-.423zM345.888 130.395l.732.423-124.628 216.168-.732-.423z"/>
            <path d="M346.619 130.818l-.423.733L130.336 6.747l.422-.733zM344.085 135.215l-.423.733-215.86-124.804.422-.733zM341.55 139.612l-.423.733L125.267 15.54l.422-.733zM339.015 144.008l-.423.733-215.86-124.804.422-.733zM336.48 148.405l-.423.733-215.86-124.804.422-.733zM333.945 152.802l-.423.733L117.662 28.73l.422-.733zM331.411 157.198l-.423.733-215.86-124.804.422-.733zM328.876 161.595l-.423.733-215.86-124.804.422-.733zM326.341 165.991l-.423.733L110.058 41.92l.422-.733zM323.806 170.388l-.423.733-215.86-124.804.422-.733zM321.272 174.785l-.423.733L104.99 50.714l.422-.733zM318.737 179.181l-.423.733L102.454 55.11l.422-.733zM316.202 183.578l-.423.733L99.92 59.507l.422-.733zM313.667 187.975l-.423.733L97.384 63.904l.422-.733zM311.132 192.371l-.423.733L94.85 68.3l.422-.733zM308.598 196.768l-.423.733L92.315 72.697l.422-.733zM306.063 201.164l-.423.733L89.78 77.093l.422-.733zM303.528 205.561l-.423.733L87.245 81.49l.422-.733zM300.993 209.958l-.423.733L84.71 85.887l.422-.733zM298.458 214.354l-.423.733L82.175 90.283l.422-.733zM295.924 218.751l-.423.733L79.641 94.68l.422-.733zM293.389 223.148l-.423.733L77.106 99.077l.422-.733zM290.854 227.544l-.423.733-215.86-124.804.422-.733zM288.319 231.941l-.423.733L72.036 107.87l.422-.733zM285.784 236.338l-.423.733-215.86-124.804.422-.733zM283.25 240.734l-.423.733-215.86-124.804.422-.733zM280.715 245.131l-.423.733L64.432 121.06l.422-.733zM278.18 249.527l-.423.733-215.86-124.804.422-.733zM275.645 253.924l-.423.733-215.86-124.804.422-.733zM273.11 258.321l-.423.733L56.827 134.25l.422-.733zM270.576 262.717l-.423.733-215.86-124.804.422-.733zM268.041 267.114l-.423.733-215.86-124.804.422-.733zM265.506 271.51l-.423.733-215.86-124.804.422-.733zM262.971 275.907l-.423.733-215.86-124.804.422-.733zM260.436 280.304l-.423.733-215.86-124.804.422-.733zM257.901 284.7l-.423.733-215.86-124.804.422-.733zM255.367 289.097l-.423.733-215.86-124.804.422-.733zM252.832 293.494l-.423.733L36.55 169.423l.422-.733zM250.297 297.89l-.423.733-215.86-124.804.422-.733zM247.762 302.287l-.423.733L31.48 178.216l.422-.733zM245.228 306.683l-.423.733-215.86-124.804.422-.733zM242.693 311.08l-.423.733L26.41 187.009l.422-.733zM240.158 315.477l-.423.733-215.86-124.804.422-.733zM237.623 319.873l-.423.733L21.34 195.802l.422-.733zM235.088 324.27l-.423.733-215.86-124.804.422-.733zM232.554 328.667l-.423.733-215.86-124.804.422-.733zM230.019 333.063l-.423.733-215.86-124.804.422-.733zM227.484 337.46l-.423.733-215.86-124.804.422-.733zM224.949 341.856l-.423.733L8.666 217.785l.422-.733zM222.414 346.253l-.423.733L6.131 222.182l.422-.733z"/>
        </g>
        <g fill="#000" opacity=".1">
            <path d="M221.992 6.014l.423.733L6.553 131.551l-.422-.733zM224.527 10.41l.423.734L9.088 135.948l-.422-.733zM227.062 14.807l.423.733L11.623 140.345l-.422-.733zM229.596 19.204l.423.733L14.157 144.74l-.422-.733zM232.131 23.6l.423.733L16.692 149.138l-.422-.733zM234.666 27.997l.423.733L19.227 153.534l-.422-.732zM237.201 32.394l.423.733L21.762 157.93l-.422-.733zM239.735 36.79l.423.733L24.296 162.328l-.422-.733zM242.27 41.187l.423.733L26.83 166.724l-.422-.732zM244.805 45.584l.423.733L29.366 171.12l-.422-.733zM247.34 49.98l.423.733L31.9 175.518l-.422-.733zM249.875 54.377l.423.733L34.436 179.914l-.422-.733zM252.41 58.774l.423.733L36.97 184.31l-.422-.733zM254.944 63.17l.423.733L39.505 188.708l-.422-.733zM257.479 67.567l.423.733L42.04 193.104l-.422-.733zM260.014 71.963l.423.733L44.575 197.501l-.422-.733zM262.549 76.36l.423.733L47.11 201.897l-.422-.732zM265.083 80.757l.423.733L49.644 206.294l-.422-.733zM267.618 85.153l.423.733L52.179 210.691l-.422-.733zM270.153 89.55l.423.733L54.714 215.087l-.422-.733zM272.688 93.947l.423.733L57.249 219.484l-.422-.733zM275.223 98.343l.423.733L59.784 223.881l-.422-.733zM277.757 102.74l.423.733L62.318 228.277l-.422-.733zM280.292 107.136l.423.733L64.853 232.673l-.422-.733zM282.827 111.533l.423.733L67.388 237.07l-.422-.733zM285.362 115.93l.423.733L69.923 241.467l-.422-.733zM287.897 120.326l.423.733L72.458 245.863l-.422-.733zM290.431 124.723l.423.733L74.992 250.26l-.422-.733zM292.966 129.12l.423.733L77.527 254.657l-.422-.733zM295.501 133.516l.423.733L80.062 259.053l-.422-.733zM298.036 137.913l.423.733L82.597 263.45l-.422-.733zM300.571 142.309l.423.733L85.132 267.846l-.422-.733zM303.105 146.706l.423.733L87.666 272.243l-.422-.733zM305.64 151.103l.423.733L90.2 276.64l-.422-.733zM308.175 155.499l.423.733L92.736 281.036l-.422-.733zM310.71 159.896l.423.733L95.27 285.433l-.422-.733zM313.245 164.293l.423.733L97.806 289.83l-.422-.733zM315.779 168.689l.423.733L100.34 294.226l-.422-.733zM318.314 173.086l.423.733-215.862 124.804-.422-.733zM320.849 177.482l.423.733L105.41 303.019l-.422-.733zM323.384 181.879l.423.733-215.862 124.804-.422-.733zM325.919 186.276l.423.733L110.48 311.813l-.422-.733zM328.453 190.672l.423.733-215.862 124.804-.422-.733zM330.988 195.069l.423.733-215.862 124.804-.422-.733zM333.523 199.466l.423.733-215.862 124.804-.422-.733zM336.058 203.862l.423.733-215.862 124.804-.422-.733zM338.593 208.259l.423.733-215.862 124.804-.422-.733zM341.127 212.655l.423.733-215.862 124.804-.422-.733zM343.662 217.052l.423.733-215.862 124.804-.422-.733zM346.197 221.449l.423.733-215.862 124.804-.422-.733z"/>
            <path d="M346.619 222.181l-.732.423L221.26 6.436l.731-.423zM342.229 224.72l-.732.423L216.87 8.975l.731-.423zM337.839 227.258l-.732.423L212.48 11.513l.731-.423zM333.448 229.797l-.732.423L208.09 14.052l.731-.423zM329.058 232.335l-.732.423L203.7 16.59l.731-.423zM324.667 234.873l-.732.423L199.308 19.128l.731-.423zM320.277 237.412l-.732.423L194.918 21.667l.731-.423zM315.887 239.95l-.732.423L190.528 24.205l.731-.423zM311.496 242.489l-.732.423L186.137 26.744l.731-.423zM307.106 245.027l-.732.423L181.747 29.282l.731-.423zM302.715 247.565l-.732.423L177.356 31.82l.731-.423zM298.325 250.104l-.732.423L172.966 34.359l.731-.423zM293.935 252.642l-.732.423L168.576 36.897l.731-.423zM289.544 255.181l-.732.423L164.185 39.436l.731-.423zM285.154 257.719l-.732.423L159.795 41.974l.731-.423zM280.763 260.257l-.732.423L155.404 44.512l.731-.423zM276.373 262.796l-.732.423L151.014 47.05l.731-.423zM271.983 265.334l-.732.423L146.624 49.589l.731-.423zM267.592 267.873l-.732.423L142.233 52.128l.731-.423zM263.202 270.411l-.732.423L137.843 54.666l.731-.423zM258.811 272.949l-.732.423L133.452 57.204l.731-.423zM254.421 275.488l-.732.423L129.062 59.743l.731-.423zM250.031 278.026l-.732.423L124.672 62.28l.731-.423zM245.64 280.564l-.732.423L120.281 64.819l.731-.423zM241.25 283.103l-.732.423L115.891 67.358l.731-.423zM236.859 285.641l-.732.423L111.5 69.896l.731-.423zM232.469 288.18l-.732.423L107.11 72.435l.731-.423zM228.079 290.718l-.732.423L102.72 74.973l.731-.423zM223.688 293.256l-.732.423L98.33 77.51l.731-.423zM219.298 295.795l-.732.423L93.94 80.05l.731-.423zM214.907 298.333l-.732.423L89.548 82.588l.731-.423zM210.517 300.872l-.732.423L85.158 85.127l.731-.423zM206.127 303.41l-.732.423L80.768 87.665l.731-.423zM201.736 305.948l-.732.423L76.377 90.203l.731-.423zM197.346 308.487l-.732.423L71.987 92.742l.731-.423zM192.955 311.025l-.732.423L67.596 95.28l.731-.423zM188.565 313.564l-.732.423L63.206 97.819l.731-.423zM184.175 316.102l-.732.423L58.816 100.357l.731-.423zM179.784 318.64l-.732.423L54.425 102.895l.731-.423zM175.394 321.179l-.732.423L50.035 105.434l.731-.423zM171.003 323.717l-.732.423L45.644 107.972l.731-.423zM166.613 326.256l-.732.423L41.254 110.51l.731-.423zM162.223 328.794l-.732.423L36.864 113.049l.731-.423zM157.832 331.332l-.732.423L32.473 115.587l.731-.423zM153.442 333.871l-.732.423L28.083 118.126l.731-.423zM149.051 336.409l-.732.423L23.692 120.664l.731-.423zM144.661 338.947l-.732.423L19.302 123.202l.731-.423zM140.271 341.486l-.732.423L14.912 125.74l.731-.423zM135.88 344.024l-.732.423L10.521 128.279l.731-.423zM131.49 346.563l-.732.423L6.131 130.818l.731-.423z"/>
        </g>
    </g>
</svg>
