<?xml version="1.0" encoding="UTF-8" standalone="no"?>
<svg
   xmlns:dc="http://purl.org/dc/elements/1.1/"
   xmlns:cc="http://creativecommons.org/ns#"
   xmlns:rdf="http://www.w3.org/1999/02/22-rdf-syntax-ns#"
   xmlns:svg="http://www.w3.org/2000/svg"
   xmlns="http://www.w3.org/2000/svg"
   xmlns:sodipodi="http://sodipodi.sourceforge.net/DTD/sodipodi-0.dtd"
   xmlns:inkscape="http://www.inkscape.org/namespaces/inkscape"
   width="48"
   height="48"
   viewBox="0 0 48 48"
   fill="none"
   version="1.1"
   id="svg41"
   sodipodi:docname="longD.svg"
   inkscape:version="0.92.4 (f8dce91, 2019-08-02)">
  <metadata
     id="metadata45">
    <rdf:RDF>
      <cc:Work
         rdf:about="">
        <dc:format>image/svg+xml</dc:format>
        <dc:type
           rdf:resource="http://purl.org/dc/dcmitype/StillImage" />
        <dc:title></dc:title>
      </cc:Work>
    </rdf:RDF>
  </metadata>
  <sodipodi:namedview
     pagecolor="#ffffff"
     bordercolor="#666666"
     borderopacity="1"
     objecttolerance="10"
     gridtolerance="10"
     guidetolerance="10"
     inkscape:pageopacity="0"
     inkscape:pageshadow="2"
     inkscape:window-width="1853"
     inkscape:window-height="1025"
     id="namedview43"
     showgrid="false"
     showguides="false"
     inkscape:zoom="4.9166667"
     inkscape:cx="59.59322"
     inkscape:cy="24"
     inkscape:window-x="67"
     inkscape:window-y="27"
     inkscape:window-maximized="1"
     inkscape:current-layer="g14" />
  <g
     clip-path="url(#clip0)"
     id="g14">
    <g
       filter="url(#filter0_d)"
       id="g4">
      <circle
         cx="24"
         cy="24"
         r="24"
         transform="rotate(-5.6583 24 24)"
         fill="white"
         id="circle2" />
    </g>
    <path
       d="M 0.77790992,21.965367 C 1.1954871,17.237009 3.0059071,12.738683 5.9800837,9.0392645 9.9683425,4.0784415 15.763907,0.90521924 22.091897,0.21751274 28.419774,-0.47022106 34.76176,1.3840583 39.722569,5.3723315 c 3.699424,2.974171 6.433819,6.9785605 7.857448,11.5068355 1.423574,4.528216 1.472429,9.37692 0.140335,13.93294 -1.332031,4.55597 -3.985258,8.614712 -7.623977,11.662788 -3.638788,3.048148 -8.099697,4.948781 -12.818705,5.46166 l -0.824996,-7.591744 c 3.217521,-0.349643 6.259003,-1.645493 8.739969,-3.723738 2.481028,-2.078323 4.290014,-4.845609 5.198258,-7.951995 0.908174,-3.106314 0.874878,-6.412224 -0.09576,-9.499725 -0.970598,-3.087401 -2.83501,-5.817712 -5.357314,-7.845535 C 31.555435,8.6045245 27.231364,7.3402775 22.916896,7.8092005 18.602357,8.2780525 14.650901,10.441651 11.931536,13.823974 9.9037205,16.346285 8.6693948,19.413337 8.3846186,22.637199 Z"
       id="path6"
       style="fill:url(#paint0_linear)"
       inkscape:connector-curvature="0" />
    <path
       d="M24 41C33.3888 41 41 33.3888 41 24C41 14.6112 33.3888 7 24 7C14.6112 7 7 14.6112 7 24C7 33.3888 14.6112 41 24 41Z"
       fill="white"
       id="path8" />
    <path
       d="m 17.198709,30.337783 0.192442,-13.03784 4.035935,8.738932 8.711658,4.094475 z"
       id="path10"
       style="opacity:0.8;fill:#00ff00"
       inkscape:connector-curvature="0" />
    <path
       d="m 17.391293,17.299943 12.7905,0.04291 -0.04291,12.7905 -8.711657,-4.094475 z m 1.778195,1.889921 2.766914,2.78554 3.668591,0.01231 -0.01231,3.668591 2.717512,2.735806 0.0306,-9.121909 z"
       id="path12"
       style="clip-rule:evenodd;fill:#008000;fill-rule:evenodd"
       inkscape:connector-curvature="0" />
  </g>
  <defs
     id="defs39">
    <filter
       id="filter0_d"
       x="-48.2494"
       y="-44.2493"
       width="144.499"
       height="144.499"
       filterUnits="userSpaceOnUse"
       color-interpolation-filters="sRGB">
      <feFlood
         flood-opacity="0"
         result="BackgroundImageFix"
         id="feFlood16" />
      <feColorMatrix
         in="SourceAlpha"
         type="matrix"
         values="0 0 0 0 0 0 0 0 0 0 0 0 0 0 0 0 0 0 127 0"
         id="feColorMatrix18" />
      <feOffset
         dy="4"
         id="feOffset20" />
      <feGaussianBlur
         stdDeviation="23"
         id="feGaussianBlur22" />
      <feColorMatrix
         type="matrix"
         values="0 0 0 0 0 0 0 0 0 0 0 0 0 0 0 0 0 0 0.08 0"
         id="feColorMatrix24" />
      <feBlend
         mode="normal"
         in2="BackgroundImageFix"
         result="effect1_dropShadow"
         id="feBlend26" />
      <feBlend
         mode="normal"
         in="SourceGraphic"
         in2="effect1_dropShadow"
         result="shape"
         id="feBlend28" />
    </filter>
    <linearGradient
       id="paint0_linear"
       x1="20.033897"
       y1="4.3305087"
       x2="25.5258"
       y2="44.2248"
       gradientUnits="userSpaceOnUse"
       gradientTransform="rotate(134.45604,24.326239,24.182259)">
      <stop
         stop-color="#27D3A2"
         id="stop31"
         style="stop-color:#00ff00;stop-opacity:1" />
      <stop
         offset="1"
         stop-color="#9388FD"
         id="stop33"
         style="stop-color:#008000;stop-opacity:1" />
    </linearGradient>
    <clipPath
       id="clip0">
      <rect
         width="48"
         height="48"
         fill="white"
         id="rect36" />
    </clipPath>
  </defs>
</svg>
