<svg xmlns="http://www.w3.org/2000/svg" width="97" height="26" fill="none" viewBox="0 0 97 26">
    <path fill="#000" d="M0 1.082h12.56v.767H8.862v22.888h1.256c1.977 0 3.547-.604 4.71-1.814 1.187-1.21 2.385-3.07 3.594-5.582h.733l-.663 8.164H0v-.768h2.059V1.85H0v-.767zM31.39 25.121c1.164 0 2.187-.314 3.071-.942.907-.628 1.361-1.57 1.361-2.826 0-1.28-.489-2.256-1.465-2.93-.954-.675-2.326-1.257-4.117-1.745-1.768-.512-3.06-.954-3.873-1.326-.791-.372-1.547-.86-2.268-1.466-1.442-1.21-2.163-3.082-2.163-5.617 0-2.07.732-3.85 2.198-5.338 1.488-1.489 3.512-2.233 6.07-2.233 1.233 0 2.513.186 3.839.558 1.349.349 2.186.523 2.512.523.325 0 .616-.232.872-.697h.384l.244 7.047h-.558c-1.117-2.023-2.291-3.64-3.524-4.85-1.21-1.232-2.535-1.848-3.978-1.848-1.419 0-2.523.337-3.314 1.011-.791.652-1.187 1.535-1.187 2.652 0 1.093.466 1.942 1.396 2.547.954.581 2.117 1.058 3.49 1.43 1.372.373 2.267.629 2.686.768.442.14.977.337 1.605.593.65.233 1.174.489 1.57.768.418.256.849.593 1.29 1.012.466.395.826.837 1.082 1.325.628 1.117.942 2.443.942 3.978 0 2.512-.79 4.536-2.372 6.07-1.559 1.513-3.617 2.269-6.176 2.269-1.326 0-2.85-.175-4.57-.524-1.699-.348-2.64-.523-2.827-.523-.325 0-.64.349-.942 1.047h-.488l-.349-8.304h.593a19.352 19.352 0 0 0 3.908 5.303c1.605 1.512 3.291 2.268 5.059 2.268zM65.884 12.874c0 4.792-1.35 8.13-4.047 10.014-2.49 1.745-5.909 2.617-10.258 2.617h-9.874v-.663h2.303V1.745h-2.303v-.663h10.78c4.467 0 7.816.918 10.05 2.756 2.232 1.814 3.349 4.826 3.349 9.037zM50.81 24.843h1.326c2.35 0 4.024-.826 5.024-2.477 1.024-1.675 1.535-4.466 1.535-8.374v-2.024c0-5.233-1-8.385-3-9.455-.954-.512-2.303-.767-4.047-.767h-.838v23.097zM75.862 17.306h1.012v-2.687c0-2.21-.128-3.687-.383-4.431-.233-.768-.698-1.151-1.396-1.151-.419 0-.803.116-1.151.348-.326.21-.489.512-.489.908 0 .372.07.756.21 1.151h.872c.186.488.279 1.082.279 1.78 0 .674-.291 1.267-.873 1.779-.581.488-1.314.732-2.198.732-2 0-3-.965-3-2.895 0-2.861 2.43-4.292 7.292-4.292 2.768 0 4.675.477 5.722 1.43 1.07.931 1.605 2.652 1.605 5.164v7.083c0 1.21.337 1.814 1.012 1.814.79 0 1.256-1.198 1.395-3.593l.524.035c-.093 2.046-.477 3.454-1.152 4.221-.674.768-1.78 1.152-3.314 1.152-2.791 0-4.396-.86-4.815-2.582-.302.884-.756 1.535-1.36 1.954-.606.418-1.49.628-2.653.628-3.442 0-5.163-1.407-5.163-4.222 0-1.652.651-2.78 1.954-3.384 1.325-.628 3.349-.942 6.07-.942zm-1.395 4.291c0 1.21.058 1.989.174 2.338.14.349.384.523.733.523.372 0 .71-.29 1.012-.872.326-.605.488-1.43.488-2.477v-3.245h-.244c-1.442 0-2.163 1.058-2.163 3.175v.558zM91.766 6.49c-1.232 0-2.116-.314-2.651-.942-.512-.628-.768-1.408-.768-2.338 0-.93.28-1.698.838-2.303C89.766.302 90.638 0 91.8 0s2.047.28 2.652.837c.605.535.907 1.315.907 2.338 0 1-.29 1.803-.872 2.407-.582.605-1.489.908-2.722.908zm-5.268 2.407h8.548v15.98H97v.628H86.638v-.628h1.918V9.525h-2.058v-.628z"/>
</svg>
