<svg xmlns="http://www.w3.org/2000/svg" width="38" height="10" fill="none" viewBox="0 0 38 10">
    <path fill="#F8F8F8" d="M0 .418h4.877v.297H3.44v8.853h.487c.768 0 1.378-.234 1.83-.702.46-.467.925-1.187 1.395-2.159h.284L7.18 9.865H0v-.297h.8V.715H0V.418zM12.188 9.717a2.01 2.01 0 0 0 1.192-.365c.352-.243.528-.607.528-1.093 0-.495-.19-.873-.569-1.133-.37-.261-.903-.486-1.598-.675-.687-.198-1.188-.37-1.504-.513a4.062 4.062 0 0 1-.88-.567c-.56-.468-.84-1.192-.84-2.173 0-.8.284-1.489.853-2.064C9.948.558 10.734.27 11.727.27c.479 0 .976.072 1.49.216.524.135.85.202.976.202s.239-.09.338-.27h.15l.094 2.726h-.217c-.433-.782-.89-1.408-1.368-1.875-.47-.477-.984-.716-1.544-.716-.551 0-.98.13-1.287.392-.307.252-.46.593-.46 1.025 0 .423.18.752.541.985.37.225.822.41 1.355.554.533.144.88.243 1.043.297.172.054.38.13.623.23.253.09.456.188.61.296.162.099.33.23.5.391.181.153.322.324.42.513.245.432.367.945.367 1.539 0 .971-.307 1.754-.921 2.348-.606.585-1.405.877-2.398.877a9.09 9.09 0 0 1-1.775-.202c-.66-.135-1.025-.203-1.097-.203-.127 0-.248.135-.366.405h-.19l-.135-3.212h.23a7.487 7.487 0 0 0 1.518 2.051c.623.585 1.277.878 1.964.878zM25.58 4.98c0 1.853-.524 3.144-1.571 3.873-.967.675-2.294 1.012-3.983 1.012h-3.834V9.61h.894V.675h-.894V.418h4.186c1.734 0 3.034.356 3.901 1.066.867.702 1.3 1.867 1.3 3.496zm-5.852 4.629h.515c.912 0 1.562-.32 1.95-.959.398-.647.596-1.727.596-3.238v-.783c0-2.024-.388-3.243-1.165-3.657-.37-.198-.894-.297-1.571-.297h-.325v8.934zM29.454 6.694h.393v-1.04c0-.854-.05-1.425-.149-1.713-.09-.297-.271-.446-.542-.446a.791.791 0 0 0-.447.135.392.392 0 0 0-.19.351c0 .144.028.293.082.445h.338c.073.19.109.419.109.689 0 .26-.113.49-.339.688-.226.189-.51.283-.853.283-.777 0-1.165-.373-1.165-1.12 0-1.106.943-1.66 2.83-1.66 1.075 0 1.816.185 2.223.554.415.36.623 1.025.623 1.997v2.74c0 .467.13.701.393.701.306 0 .487-.463.541-1.39l.203.014c-.036.791-.185 1.336-.447 1.633-.261.297-.69.445-1.286.445-1.084 0-1.707-.333-1.87-.999-.117.342-.293.594-.528.756-.235.162-.578.243-1.03.243-1.336 0-2.005-.544-2.005-1.633 0-.639.253-1.075.76-1.309.514-.243 1.3-.364 2.356-.364zm-.542 1.66c0 .467.023.769.068.904.054.135.149.202.285.202.144 0 .275-.112.392-.337.127-.234.19-.553.19-.958V6.91h-.095c-.56 0-.84.409-.84 1.228v.216zM35.629 2.51c-.479 0-.822-.121-1.03-.364-.198-.243-.298-.545-.298-.904 0-.36.109-.657.325-.891.226-.234.565-.351 1.017-.351.451 0 .794.108 1.029.324.235.207.352.508.352.904 0 .387-.113.697-.338.931-.226.234-.578.351-1.057.351zm-2.045.931h3.318v6.181h.759v.243h-4.023v-.243h.745V3.684h-.8v-.243z"/>
</svg>
