<svg xmlns="http://www.w3.org/2000/svg" width="10" height="10" fill="none" viewBox="0 0 10 10">
    <path fill="#fff" d="M5 0C2.187 0 0 2.228 0 5.093c0 3.342 2.969 4.774 3.438 4.774.312 0 .312-.159.312-.318v-.796c-1.094.319-1.563-.318-1.719-.795 0 0 0-.16-.312-.478-.157-.159-.782-.477-.157-.477.47 0 .782.636.782.636.469.637 1.094.478 1.406.319 0-.319.313-.637.313-.637-1.25-.16-2.188-.637-2.188-2.387 0-.637.156-1.114.469-1.433 0 0-.313-.636 0-1.432 0 0 .781 0 1.406.637.469-.319 2.031-.319 2.5 0 .625-.637 1.406-.637 1.406-.637.313 1.114 0 1.432 0 1.432.313.319.469.796.469 1.433 0 1.75-1.094 2.228-2.188 2.387.157.16.313.477.313.955v1.273c0 .16 0 .318.313.318C7.03 9.867 10 8.435 10 5.093 10 2.228 7.812 0 5 0z"/>
</svg>
