<svg xmlns="http://www.w3.org/2000/svg" width="10" height="11" fill="none" viewBox="0 0 10 11">
    <path fill="#fff" d="M5 0C2.239 0 0 2.28 0 5.093c0 2.812 2.239 5.093 5 5.093s5-2.28 5-5.093S7.761 0 5 0zm2.403 3.839c.003.053.003.11.003.164 0 1.668-1.248 3.59-3.528 3.59a3.469 3.469 0 0 1-1.904-.565c.1.011.197.016.3.016.58 0 1.113-.2 1.538-.54a1.243 1.243 0 0 1-1.158-.875c.19.029.363.029.56-.022a1.235 1.235 0 0 1-.714-.44 1.277 1.277 0 0 1-.279-.8v-.015c.164.094.357.152.56.16a1.255 1.255 0 0 1-.406-.455 1.282 1.282 0 0 1 .021-1.232c.311.39.7.71 1.14.937.44.227.923.358 1.416.383-.175-.859.454-1.553 1.211-1.553.357 0 .679.152.905.398.28-.054.548-.16.787-.304a1.253 1.253 0 0 1-.545.695c.25-.027.491-.098.715-.197-.169.253-.38.476-.622.655z"/>
</svg>
